<svg width="523" height="513" viewBox="0 0 523 513" fill="none" xmlns="http://www.w3.org/2000/svg">
<line x1="28" y1="293" x2="28" y2="491" stroke="white" stroke-width="20" stroke-linecap="round"/>
<line x1="492" y1="293" x2="492" y2="491" stroke="white" stroke-width="20" stroke-linecap="round"/>
<line x1="375.473" y1="230.7" x2="512.7" y2="301.527" stroke="white" stroke-width="20" stroke-linecap="round"/>
<line x1="10.8775" y1="301.4" x2="144.4" y2="227.122" stroke="white" stroke-width="20" stroke-linecap="round"/>
<line x1="148" y1="502" x2="148" y2="358" stroke="white" stroke-width="20" stroke-linecap="round"/>
<line x1="148.058" y1="201.858" x2="255.858" y2="94.9418" stroke="white" stroke-width="20" stroke-linecap="round"/>
<line x1="10" y1="-10" x2="161.828" y2="-10" transform="matrix(0.710011 0.704191 0.704191 -0.710011 263 79)" stroke="white" stroke-width="20" stroke-linecap="round"/>
<line x1="260" y1="502" x2="260" y2="358" stroke="white" stroke-width="20" stroke-linecap="round"/>
<line x1="148" y1="273" x2="148" y2="204" stroke="white" stroke-width="20" stroke-linecap="round"/>
<line x1="148" y1="315" x2="148" y2="315" stroke="white" stroke-width="20" stroke-linecap="round"/>
<line x1="260" y1="92" x2="260" y2="10" stroke="white" stroke-width="20" stroke-linecap="round"/>
<line x1="238" y1="41" x2="282" y2="41" stroke="white" stroke-width="20" stroke-linecap="round"/>
<line x1="372" y1="204" x2="372" y2="497" stroke="white" stroke-width="20" stroke-linecap="round"/>
<line x1="506" y1="503" x2="14" y2="503" stroke="white" stroke-width="20" stroke-linecap="round"/>
<path d="M296 246.5C296 266.761 279.781 283 260 283C240.219 283 224 266.761 224 246.5C224 226.239 240.219 210 260 210C279.781 210 296 226.239 296 246.5Z" stroke="#FFF9F9" stroke-width="20"/>
<path d="M296 246.5C296 266.761 279.781 283 260 283C240.219 283 224 266.761 224 246.5C224 226.239 240.219 210 260 210C279.781 210 296 226.239 296 246.5Z" stroke="#FFF9F9" stroke-width="20"/>
<mask id="path-17-inside-1_3_30" fill="white">
<path d="M57 381C57 364.431 70.4315 351 87 351H89C105.569 351 119 364.431 119 381V439C119 444.523 114.523 449 109 449H67C61.4772 449 57 444.523 57 439V381Z"/>
</mask>
<path d="M57 381C57 364.431 70.4315 351 87 351H89C105.569 351 119 364.431 119 381V439C119 444.523 114.523 449 109 449H67C61.4772 449 57 444.523 57 439V381Z" stroke="white" stroke-width="40" mask="url(#path-17-inside-1_3_30)"/>
<mask id="path-18-inside-2_3_30" fill="white">
<path d="M401 381C401 364.431 414.431 351 431 351H433C449.569 351 463 364.431 463 381V439C463 444.523 458.523 449 453 449H411C405.477 449 401 444.523 401 439V381Z"/>
</mask>
<path d="M401 381C401 364.431 414.431 351 431 351H433C449.569 351 463 364.431 463 381V439C463 444.523 458.523 449 453 449H411C405.477 449 401 444.523 401 439V381Z" stroke="white" stroke-width="40" mask="url(#path-18-inside-2_3_30)"/>
<mask id="path-19-inside-3_3_30" fill="white">
<path d="M193 409.5C193 372.773 222.773 343 259.5 343V343C296.227 343 326 372.773 326 409.5V502C326 507.523 321.523 512 316 512H203C197.477 512 193 507.523 193 502V409.5Z"/>
</mask>
<path d="M193 409.5C193 372.773 222.773 343 259.5 343V343C296.227 343 326 372.773 326 409.5V502C326 507.523 321.523 512 316 512H203C197.477 512 193 507.523 193 502V409.5Z" stroke="white" stroke-width="40" mask="url(#path-19-inside-3_3_30)"/>
</svg>
